<?xml version="1.0" encoding="utf-8"?>
<!-- Generator: Adobe Illustrator 23.0.2, SVG Export Plug-In . SVG Version: 6.00 Build 0)  -->
<svg version="1.1" id="Ebene_1" xmlns="http://www.w3.org/2000/svg" xmlns:xlink="http://www.w3.org/1999/xlink" x="0px" y="0px"
	 viewBox="0 0 980 600" style="enable-background:new 0 0 980 600;" xml:space="preserve">
<style type="text/css">
	.st0{fill:#376A56;}
	.st1{fill:#F97599;}
	.st2{fill:#F7A7BD;}
	.st3{fill-rule:evenodd;clip-rule:evenodd;fill:url(#Triangle-Copy-3_1_);}
	.st4{fill-rule:evenodd;clip-rule:evenodd;fill:url(#Triangle-Copy-4_1_);}
	.st5{fill-rule:evenodd;clip-rule:evenodd;fill:url(#Triangle-Copy-6_1_);}
	.st6{fill-rule:evenodd;clip-rule:evenodd;fill:url(#Triangle-Copy-8_1_);}
</style>
<g id="ARTIS_Hero">
	<g id="Artis_icon-Copy-2" transform="translate(51.000000, 21.000000)">
		<path id="Shape" class="st0" d="M434.5611,419.65829c-0.79276,3.16858-4.71811,4.29324-7.06961,2.02554l-67.98706-65.56436
			c-2.3537-2.26987-1.36578-6.2356,1.77792-7.13699l90.9129-26.06778c3.14447-0.90161,6.08542,1.93918,5.29172,5.11148
			L434.5611,419.65829z M447.45917,333.1069l-76.75952,22.00952l57.40277,55.35727L447.45917,333.1069z M457.48801,328.022
			c-0.78897,3.16708-4.7088,4.29712-7.06372,2.03638l-67.98706-65.26813c-2.35745-2.26315-1.38132-6.22855,1.75751-7.13977
			l90.81412-26.36398c3.1456-0.91319,6.09772,1.92609,5.30621,5.10339L457.48801,328.022z M470.28772,241.49969l-76.66394,22.2561
			l57.39368,55.09839L470.28772,241.49969z M320.92099,537.354c-0.79001,3.1712-4.71777,4.29871-7.07065,2.02972l-67.98706-65.56439
			c-2.35332-2.26947-1.3662-6.23447,1.77673-7.13666l90.81409-26.06778c3.14288-0.9021,6.08408,1.93518,5.29395,5.10696
			L320.92099,537.354z M333.7269,450.80679l-76.6702,22.00781l57.39835,55.35294L333.7269,450.80679z M252.93394,471.78964
			c-0.79036,3.17261-4.72076,4.29929-7.07295,2.0275l-67.98706-65.66312c-2.35196-2.27158-1.36116-6.23648,1.78313-7.13562
			l90.8141-25.96902c3.14197-0.89847,6.0795,1.93817,5.28983,5.10815L252.93394,471.78964z M265.74191,385.23416l-76.67226,21.92502
			l57.3999,55.43787L265.74191,385.23416z M593.46216,459.24945c-0.79004,3.17123-4.71783,4.29874-7.07068,2.02969
			l-67.98706-65.56433c-2.35333-2.26947-1.36621-6.2345,1.77673-7.13666l90.81409-26.06778
			c3.14288-0.90213,6.08405,1.93518,5.29395,5.10696L593.46216,459.24945z M606.26801,372.70227l-76.67017,22.00778l57.39832,55.353
			L606.26801,372.70227z M616.29022,367.61316c-0.78662,3.17111-4.71149,4.30316-7.06708,2.03833l-67.98706-65.36685
			c-2.35565-2.26489-1.37671-6.22946,1.76276-7.13843l90.71527-26.26523c3.14313-0.91003,6.09186,1.92514,5.30432,5.10007
			L616.29022,367.61316z M628.99982,281.08673l-76.57666,22.17163l57.39081,55.17902L628.99982,281.08673z M525.47455,393.68716
			c-0.79102,3.16858-4.71497,4.2955-7.06781,2.02988l-67.98709-65.46564c-2.35742-2.26999-1.3685-6.24014,1.77856-7.14005
			l90.81412-25.96902c3.14282-0.89871,6.08081,1.93976,5.28925,5.11023L525.47455,393.68716z M538.27893,307.32831
			l-76.65582,21.92032l57.38757,55.25925L538.27893,307.32831z M343.74805,445.72186
			c-0.79001,3.17123-4.71777,4.29874-7.07065,2.02972l-67.98706-65.56436c-2.35333-2.26947-1.36621-6.23453,1.77673-7.13666
			l90.81409-26.06778c3.14288-0.9021,6.08408,1.93518,5.29391,5.10696L343.74805,445.72186z M356.55396,359.17468l-76.6702,22.00781
			l57.39835,55.35297L356.55396,359.17468z M366.57327,354.09708c-0.79379,3.16245-4.70941,4.28751-7.06192,2.02905
			L291.52432,290.858c-2.36194-2.26749-1.37686-6.24109,1.77097-7.14368l90.9129-26.06775
			c3.14587-0.90201,6.0874,1.94153,5.29092,5.11462L366.57327,354.09708z M379.46585,267.84058l-76.73477,22.00241
			l57.38428,55.08936L379.46585,267.84058z M389.50095,262.75388c-0.79001,3.17123-4.71774,4.29874-7.07065,2.02972
			l-67.98706-65.56438c-2.3533-2.26945-1.36618-6.2345,1.77673-7.13666l90.81412-26.06776
			c3.14288-0.90213,6.08405,1.93518,5.29391,5.10696L389.50095,262.75388z M402.30685,176.20668l-76.67017,22.00781
			l57.39835,55.35298L402.30685,176.20668z M321.51389,197.18951c-0.79169,3.17807-4.73254,4.30139-7.082,2.01871
			l-67.88824-65.95934c-2.34486-2.27823-1.34293-6.23958,1.80338-7.13l90.7153-25.67278
			c3.13943-0.88847,6.06708,1.94636,5.27863,5.1113L321.51389,197.18951z M334.32745,110.61161l-76.58667,21.67432
			l57.31485,55.68636L334.32745,110.61161z M412.328,171.12177c-0.79001,3.17123-4.71777,4.29875-7.07065,2.02971
			l-67.98706-65.56435c-2.35333-2.26947-1.36618-6.2345,1.77673-7.13667l90.81412-26.06776
			c3.14288-0.90215,6.08405,1.93517,5.29391,5.10695L412.328,171.12177z M425.13391,84.57456l-76.67017,22.00781l57.39832,55.35297
			L425.13391,84.57456z M358.92477,11.5771c0.79001-3.17124,4.71777-4.29875,7.07065-2.02971l67.98706,65.56435
			c2.35333,2.26947,1.36618,6.2345-1.77673,7.13666l-90.81412,26.06776c-3.14288,0.90215-6.08405-1.93517-5.29391-5.10696
			L358.92477,11.5771z M346.11887,98.12429l76.67017-22.0078L365.39072,20.7635L346.11887,98.12429z M267.51776,378.10553
			c0.79001-3.17123,4.71777-4.29874,7.07065-2.02969l67.98706,65.56436c2.3533,2.26944,1.36618,6.2345-1.77673,7.13666
			l-90.8141,26.06775c-3.14288,0.90216-6.08408-1.93518-5.29393-5.10696L267.51776,378.10553z M254.71185,464.65274
			l76.67017-22.00781l-57.39835-55.353L254.71185,464.65274z M540.0589,300.19849c0.78998-3.17123,4.71771-4.29874,7.07062-2.02969
			l67.98706,65.56433c2.35333,2.26947,1.36621,6.23453-1.77673,7.13666l-90.81409,26.06778
			c-3.14288,0.90216-6.08411-1.93518-5.29395-5.10696L540.0589,300.19849z M527.25299,386.74567l76.67017-22.00778l-57.39838-55.353
			L527.25299,386.74567z M449.24582,326.16333c0.79312-3.16995,4.7211-4.29379,7.0719-2.02332l67.98709,65.66309
			c2.35236,2.27197,1.36072,6.23761-1.7843,7.13596l-90.91296,25.96902c-3.14352,0.89795-6.08081-1.94214-5.2876-5.11264
			L449.24582,326.16333z M436.34567,412.72299l76.76163-21.92673l-57.40433-55.44214L436.34567,412.72299z M290.34479,286.6709
			c0.79001-3.17123,4.71777-4.29874,7.07068-2.02969l67.98706,65.56433c2.3533,2.2695,1.36618,6.2345-1.77673,7.13669
			l-90.81412,26.06775c-3.14288,0.90213-6.08408-1.93515-5.29391-5.10693L290.34479,286.6709z M296.81073,295.85733
			l-19.27182,77.36078l76.67017-22.00781L296.81073,295.85733z M381.25876,260.69772
			c0.79276-3.16858,4.71811-4.29324,7.06961-2.02554l67.98706,65.56439c2.35373,2.26984,1.36581,6.23557-1.77792,7.13699
			l-90.9129,26.06772c-3.14444,0.90164-6.08539-1.93912-5.29172-5.11145L381.25876,260.69772z M368.36072,347.24911
			l76.75952-22.00952l-57.40277-55.35727L368.36072,347.24911z M404.08478,169.06978
			c0.79001-3.17123,4.71777-4.29874,7.07065-2.02971l67.98706,65.56436c2.3533,2.26947,1.36621,6.23451-1.77673,7.13666
			l-90.81409,26.06778c-3.14288,0.90213-6.08411-1.93518-5.29395-5.10696L404.08478,169.06978z M391.27887,255.61697
			l76.67017-22.00781l-57.39835-55.35297L391.27887,255.61697z M336.09772,103.50543
			c0.79001-3.17124,4.71777-4.29875,7.07065-2.02971l67.98706,65.56435c2.35333,2.26949,1.36621,6.23451-1.77673,7.13667
			l-90.81409,26.06775c-3.14288,0.90216-6.08408-1.93515-5.29395-5.10693L336.09772,103.50543z M323.29181,190.05264
			l76.6702-22.00781l-57.39835-55.353L323.29181,190.05264z"/>
		<path id="Combined-Shape" class="st0" d="M317.09583,544.02985c-5.45758,0-9.88184-4.42084-9.88184-9.87421
			c0-5.45331,4.42426-9.87408,9.88184-9.87408c5.45761,0,9.88187,4.42078,9.88187,9.87408
			C326.97769,539.60901,322.55344,544.02985,317.09583,544.02985z M339.03351,452.79269c-5.45758,0-9.88184-4.42081-9.88184-9.87418
			c0-5.45331,4.42426-9.87415,9.88184-9.87415c5.45761,0,9.88184,4.42084,9.88184,9.87415
			C348.91534,448.37189,344.49112,452.79269,339.03351,452.79269z M249.50406,479.84787c-5.4576,0-9.88185-4.42081-9.88185-9.87418
			c0-5.45331,4.42426-9.87411,9.88185-9.87411c5.45758,0,9.88184,4.42081,9.88184,9.87411
			C259.38589,475.42706,254.96164,479.84787,249.50406,479.84787z M273.12164,388.61072c-5.45758,0-9.88184-4.42081-9.88184-9.87418
			c0-5.45331,4.42426-9.87411,9.88184-9.87411s9.88184,4.42081,9.88184,9.87411
			C283.00348,384.18991,278.57922,388.61072,273.12164,388.61072z M181.81345,415.66586c-5.45758,0-9.88184-4.42081-9.88184-9.87411
			c0-5.45337,4.42426-9.87418,9.88184-9.87418c5.4576,0,9.88185,4.42081,9.88185,9.87418
			C191.6953,411.24506,187.27104,415.66586,181.81345,415.66586z M362.74994,362.54297c-5.45761,0-9.88187-4.42084-9.88187-9.87415
			c0-5.45337,4.42426-9.87418,9.88187-9.87418c5.45758,0,9.88184,4.42081,9.88184,9.87418
			C372.63177,358.12213,368.20752,362.54297,362.74994,362.54297z M429.84763,425.73752c-5.45758,0-9.88184-4.42084-9.88184-9.87415
			c0-5.45337,4.42426-9.87418,9.88184-9.87418s9.88184,4.42081,9.88184,9.87418
			C439.72946,421.31668,435.30521,425.73752,429.84763,425.73752z M521.15582,400.45969c-5.45758,0-9.88184-4.42081-9.88184-9.87411
			c0-5.45337,4.42426-9.87418,9.88184-9.87418s9.88184,4.42081,9.88184,9.87418
			C531.03766,396.03888,526.6134,400.45969,521.15582,400.45969z M589.2417,464.64166c-5.45764,0-9.88184-4.42081-9.88184-9.87415
			s4.42419-9.87418,9.88184-9.87418c5.45758,0,9.88184,4.42084,9.88184,9.87418S594.69928,464.64166,589.2417,464.64166z
			 M611.17938,375.08313c-5.45758,0-9.88184-4.42081-9.88184-9.87418c0-5.45331,4.42426-9.87411,9.88184-9.87411
			s9.88184,4.42081,9.88184,9.87411C621.06122,370.66232,616.63696,375.08313,611.17938,375.08313z M632.7218,285.62332
			c-5.45758,0-9.88184-4.42081-9.88184-9.87415s4.42426-9.87415,9.88184-9.87415s9.88184,4.42081,9.88184,9.87415
			S638.17938,285.62332,632.7218,285.62332z M542.50055,311.09863c-5.45758,0-9.88184-4.42081-9.88184-9.87415
			s4.42426-9.87415,9.88184-9.87415s9.88184,4.42081,9.88184,9.87415S547.95813,311.09863,542.50055,311.09863z
			 M453.56403,336.27774c-5.45758,0-9.88184-4.42084-9.88184-9.87418s4.42426-9.87415,9.88184-9.87415
			s9.88187,4.42081,9.88187,9.87415S459.02161,336.27774,453.56403,336.27774z M384.68759,270.41714
			c-5.45758,0-9.88184-4.42081-9.88184-9.87415c0-5.45335,4.42426-9.87416,9.88184-9.87416
			c5.45761,0,9.88187,4.42081,9.88187,9.87416C394.56946,265.99634,390.1452,270.41714,384.68759,270.41714z M474.21707,245.04057
			c-5.45758,0-9.88184-4.42081-9.88184-9.87415s4.42426-9.87416,9.88184-9.87416c5.45761,0,9.88187,4.42082,9.88187,9.87416
			S479.67468,245.04057,474.21707,245.04057z M296.34396,297.37357c-5.45758,0-9.88184-4.42081-9.88184-9.87415
			c0-5.45337,4.42426-9.87415,9.88184-9.87415s9.88184,4.42078,9.88184,9.87415
			C306.2258,292.95276,301.80154,297.37357,296.34396,297.37357z M320.45566,204.06285c-5.45758,0-9.88184-4.42081-9.88184-9.87415
			c0-5.45335,4.42426-9.87415,9.88184-9.87415s9.88184,4.42079,9.88184,9.87415
			C330.33749,199.64204,325.91324,204.06285,320.45566,204.06285z M407.61346,180.46364c-5.45758,0-9.88184-4.42082-9.88184-9.87416
			s4.42426-9.87415,9.88184-9.87415c5.45761,0,9.88184,4.42081,9.88184,9.87415S413.07108,180.46364,407.61346,180.46364z
			 M340.71344,114.99802c-5.45761,0-9.88184-4.42081-9.88184-9.87415c0-5.45334,4.42422-9.87415,9.88184-9.87415
			c5.45758,0,9.88184,4.42081,9.88184,9.87415C350.59528,110.57721,346.17102,114.99802,340.71344,114.99802z M428.6618,88.04159
			c-5.45758,0-9.88184-4.42081-9.88184-9.87415c0-5.45334,4.42426-9.87415,9.88184-9.87415s9.88184,4.42081,9.88184,9.87415
			C438.54364,83.62078,434.11938,88.04159,428.6618,88.04159z M364.42984,25.53822c-5.45758,0-9.88184-4.42081-9.88184-9.87415
			s4.42426-9.87415,9.88184-9.87415s9.88184,4.42081,9.88184,9.87415S369.88742,25.53822,364.42984,25.53822z M252.86388,140.37459
			c-5.4576,0-9.88184-4.42081-9.88184-9.87416c0-5.45333,4.42424-9.87415,9.88184-9.87415s9.88185,4.42081,9.88185,9.87415
			C262.74573,135.95378,258.32147,140.37459,252.86388,140.37459z"/>
	</g>
	<polygon id="Triangle-Copy" class="st1" points="265.37607,132.06602 263.00537,165.81348 234.97408,146.90613 	"/>
	<polygon id="Triangle-Copy-5" class="st1" points="516.01093,512.72754 548.83405,520.92242 525.34631,545.24463 	"/>
	<polygon id="Triangle-Copy-2" class="st2" points="693.82184,434.4389 726,423.99496 718.97009,457.06796 	"/>
	
		<linearGradient id="Triangle-Copy-3_1_" gradientUnits="userSpaceOnUse" x1="8.70183" y1="602.84698" x2="6.8249" y2="602.06403" gradientTransform="matrix(25.98076 15 13 -22.51666 -7653.47119 13859.47461)">
		<stop  offset="0" style="stop-color:#5DF636"/>
		<stop  offset="1" style="stop-color:#52A170"/>
	</linearGradient>
	<polygon id="Triangle-Copy-3" class="st3" points="387.69089,395.07004 387.68005,428.90067 358.39813,411.99475 	"/>
	
		<linearGradient id="Triangle-Copy-4_1_" gradientUnits="userSpaceOnUse" x1="7.1387" y1="596.51263" x2="5.26178" y2="595.72968" gradientTransform="matrix(28.19078 -10.2606 -8.89252 -24.43201 5340.21631 15123.87891)">
		<stop  offset="0" style="stop-color:#129C6B"/>
		<stop  offset="1" style="stop-color:#0D774D"/>
	</linearGradient>
	<polygon id="Triangle-Copy-4" class="st4" points="206.90504,480.03769 232.81384,501.7919 201.04109,513.3562 	"/>
	
		<linearGradient id="Triangle-Copy-6_1_" gradientUnits="userSpaceOnUse" x1="1.06877" y1="592.92035" x2="-0.80815" y2="592.13733" gradientTransform="matrix(-5.20945 -29.54423 -25.605 4.51485 15737.1582 -2627.823)">
		<stop  offset="0" style="stop-color:#5DF636"/>
		<stop  offset="1" style="stop-color:#52A170"/>
	</linearGradient>
	<polygon id="Triangle-Copy-6" class="st5" points="548.00317,47.7376 573.9259,26 579.79724,59.29816 	"/>
	<polygon id="Triangle-Copy-7" class="st2" points="416.97412,192.01178 445.01492,210.93861 414.62503,225.76076 	"/>
	
		<linearGradient id="Triangle-Copy-8_1_" gradientUnits="userSpaceOnUse" x1="9.21916" y1="597.17834" x2="7.34224" y2="596.39532" gradientTransform="matrix(28.19078 -10.2606 -8.89252 -24.43201 5755.21631 14827.87891)">
		<stop  offset="0" style="stop-color:#129C6B"/>
		<stop  offset="1" style="stop-color:#0D774D"/>
	</linearGradient>
	<polygon id="Triangle-Copy-8" class="st6" points="674.63556,146.42749 700.54431,168.1817 668.77161,179.74603 	"/>
</g>
</svg>
