<?xml version="1.0" encoding="UTF-8"?>
<svg width="226px" height="259px" viewBox="0 0 226 259" version="1.1" xmlns="http://www.w3.org/2000/svg" xmlns:xlink="http://www.w3.org/1999/xlink">
    <!-- Generator: Sketch 52.6 (67491) - http://www.bohemiancoding.com/sketch -->
    <title>Artis_icon Copy</title>
    <desc>Created with Sketch.</desc>
    <g id="Bridge" stroke="none" stroke-width="1" fill="none" fill-rule="evenodd" opacity="0.2">
        <g id="sigma1-2" transform="translate(-1186.000000, -251.000000)" fill="#FFFFFF" fill-rule="nonzero">
            <g id="Artis_icon-Copy" transform="translate(1186.000000, 251.000000)">
                <path d="M126.396364,198.518649 C126.01697,200.035615 124.138413,200.574048 123.01305,199.488377 L90.4763834,168.099286 C89.3499602,167.012592 89.8227467,165.113982 91.327239,164.682431 L134.835572,152.202431 C136.340419,151.770778 137.747871,153.130806 137.36803,154.649558 L126.396364,198.518649 Z M132.56901,157.081973 L95.8340822,167.619078 L123.305419,194.121495 L132.56901,157.081973 Z M137.36853,154.647557 C136.990948,156.163813 135.115034,156.704817 133.98803,155.622476 L101.451364,124.375203 C100.323161,123.291709 100.790301,121.393271 102.29246,120.957018 L145.753502,108.3352 C147.2589,107.898007 148.671703,109.257324 148.292905,110.778466 L137.36853,154.647557 Z M143.494102,113.224796 L106.80492,123.879953 L134.271903,150.258448 L143.494102,113.224796 Z M72.0114465,254.865739 C71.6333713,256.383978 69.7536562,256.923776 68.6276334,255.837468 L36.0909668,224.448377 C34.964731,223.361864 35.4371416,221.463596 36.9412589,221.031683 L80.4023006,208.551683 C81.906392,208.119778 83.3139617,209.478147 82.9358215,210.996648 L72.0114465,254.865739 Z M78.1399859,213.431063 L41.4478214,223.967355 L68.917037,250.467725 L78.1399859,213.431063 Z M39.4747798,223.476648 C39.0965404,224.995546 37.2155612,225.534941 36.0898671,224.447315 L3.55320043,193.010952 C2.42761752,191.923433 2.90178571,190.02522 4.40655637,189.594757 L47.867598,177.162029 C49.3712499,176.731886 50.7770756,178.089938 50.3991548,179.607557 L39.4747798,223.476648 Z M45.6043059,182.03801 L8.91115576,192.534673 L36.3811093,219.075667 L45.6043059,182.03801 Z M202.441863,217.473011 C202.063788,218.991251 200.184073,219.531048 199.05805,218.444741 L166.521383,187.05565 C165.395148,185.969137 165.867558,184.070869 167.371676,183.638956 L210.832717,171.158956 C212.336809,170.72705 213.744378,172.08542 213.366238,173.60392 L202.441863,217.473011 Z M208.570403,176.038336 L171.878238,186.574628 L199.347454,213.074998 L208.570403,176.038336 Z M213.366736,173.601918 C212.990309,175.120109 211.11197,175.662076 209.984632,174.577775 L177.447965,143.28323 C176.320609,142.198911 176.789127,140.300877 178.29156,139.865706 L221.70531,127.29116 C223.209519,126.855475 224.620697,128.212817 224.243819,129.732827 L213.366736,173.601918 Z M219.4492,132.177183 L182.801769,142.791903 L210.267382,169.208987 L219.4492,132.177183 Z M169.904947,186.084919 C169.526379,187.601863 167.648507,188.141382 166.522486,187.056712 L133.985819,155.714894 C132.857621,154.628127 133.330895,152.727413 134.836973,152.296575 L178.298015,139.863848 C179.802106,139.433578 181.208122,140.792502 180.829322,142.310374 L169.904947,186.084919 Z M176.032746,144.740394 L139.347467,155.234805 L166.811528,181.6903 L176.032746,144.740394 Z M82.9358215,210.996648 C82.5577463,212.514887 80.6780312,213.054685 79.5520084,211.968377 L47.0153418,180.579286 C45.889106,179.492773 46.3615166,177.594505 47.8656339,177.162592 L91.3266756,164.682592 C92.830767,164.250687 94.2383367,165.609057 93.8601965,167.127557 L82.9358215,210.996648 Z M89.0643609,169.561972 L52.3721964,180.098264 L79.841412,206.598634 L89.0643609,169.561972 Z M93.85932,167.131063 C93.4794337,168.64509 91.6055434,169.183706 90.4796969,168.102476 L57.9430303,136.855203 C56.8126763,135.769644 57.2841144,133.867273 58.7905724,133.435158 L102.298906,120.955158 C103.804416,120.523315 105.212154,121.884659 104.830987,123.403791 L93.85932,167.131063 Z M100.029354,125.835558 L63.3062808,136.369263 L90.768753,162.743426 L100.029354,125.835558 Z M104.831863,123.400284 C104.453788,124.918523 102.574073,125.458321 101.44805,124.372013 L68.9113834,92.9829225 C67.7851477,91.8964093 68.2575582,89.9981416 69.7616756,89.5662287 L113.222717,77.0862287 C114.726809,76.6543232 116.134378,78.0126929 115.756238,79.5311932 L104.831863,123.400284 Z M110.960403,81.9656087 L74.2682381,92.5019004 L101.737454,119.00227 L110.960403,81.9656087 Z M72.2951965,92.0111932 C71.9163069,93.5327026 70.0303203,94.0704975 68.905939,92.9776504 L36.416564,61.3994686 C35.2943802,60.3087574 35.7738785,58.4122518 37.2796092,57.9859629 L80.6933592,45.6950538 C82.1958066,45.2696945 83.5968959,46.6268779 83.2195715,48.1421023 L72.2951965,92.0111932 Z M78.4273975,50.5618137 L41.7752053,60.9384516 L69.2044603,87.5984289 L78.4273975,50.5618137 Z M115.756238,79.5311932 C115.378163,81.0494325 113.498448,81.5892301 112.372425,80.5029225 L79.8357584,49.1138316 C78.7095227,48.0273184 79.1819332,46.1290507 80.6860506,45.6971377 L124.147092,33.2171377 C125.651184,32.7852323 127.058753,34.143602 126.680613,35.6621023 L115.756238,79.5311932 Z M121.884778,38.0965178 L85.1926131,48.6328095 L112.661829,75.1331795 L121.884778,38.0965178 Z M90.1989702,3.14880678 C90.5770454,1.63056749 92.4567605,1.09076987 93.5827832,2.1770775 L126.11945,33.5661684 C127.245686,34.6526816 126.773275,36.5509493 125.269158,36.9828623 L81.8081161,49.4628623 C80.3040246,49.8947677 78.896455,48.536398 79.2745952,47.0178977 L90.1989702,3.14880678 Z M84.0704308,44.5834822 L120.762595,34.0471905 L93.2933796,7.5468205 L84.0704308,44.5834822 Z M46.4541785,178.62517 C46.8322537,177.106931 48.7119688,176.567134 49.8379916,177.653441 L82.3746582,209.042532 C83.500894,210.129045 83.0284834,212.027313 81.5243661,212.459226 L38.0633244,224.939226 C36.559233,225.371131 35.1516633,224.012762 35.5298035,222.494261 L46.4541785,178.62517 Z M40.3256391,220.059846 L77.0178036,209.523554 L49.548588,183.023184 L40.3256391,220.059846 Z M176.884595,141.326989 C177.26267,139.808749 179.142386,139.268952 180.268408,140.355259 L212.805075,171.74435 C213.931311,172.830863 213.4589,174.729131 211.954783,175.161044 L168.493741,187.641044 C166.98965,188.07295 165.58208,186.71458 165.96022,185.19608 L176.884595,141.326989 Z M170.756056,182.761664 L207.44822,172.225372 L179.979005,145.725002 L170.756056,182.761664 Z M133.424053,153.757714 C133.803611,152.24009 135.683431,151.702059 136.808466,152.789048 L169.345133,184.225412 C170.470903,185.313111 169.996359,187.211665 168.491215,187.641768 L124.982882,200.074495 C123.478475,200.504387 122.072766,199.144678 122.452386,197.626805 L133.424053,153.757714 Z M127.250416,195.198353 L163.986336,184.700877 L136.514257,158.15783 L127.250416,195.198353 Z M57.3785535,134.850625 C57.7566287,133.332386 59.6363438,132.792588 60.7623666,133.878896 L93.2990332,165.267987 C94.425269,166.3545 93.9528584,168.252768 92.4487411,168.68468 L48.9876994,181.16468 C47.483608,181.596586 46.0760383,180.238216 46.4541785,178.719716 L57.3785535,134.850625 Z M60.472963,139.248639 L51.2500141,176.2853 L87.9421786,165.749009 L60.472963,139.248639 Z M100.887386,122.415896 C101.26678,120.898931 103.145337,120.360497 104.2707,121.446168 L136.807367,152.835259 C137.93379,153.921953 137.461003,155.820564 135.956511,156.252115 L92.4481776,168.732115 C90.9433308,169.163768 89.5358794,167.80374 89.9157197,166.284987 L100.887386,122.415896 Z M94.7147404,163.852572 L131.449668,153.315467 L103.978331,126.81305 L94.7147404,163.852572 Z M111.811262,78.5488068 C112.189337,77.0305675 114.069052,76.4907699 115.195075,77.5770775 L147.731742,108.966168 C148.857977,110.052682 148.385567,111.950949 146.881449,112.382862 L103.420408,124.862862 C101.916316,125.294768 100.508747,123.936398 100.886887,122.417898 L111.811262,78.5488068 Z M105.682722,119.983482 L142.374887,109.447191 L114.905671,82.9468205 L105.682722,119.983482 Z M79.2745952,47.1597159 C79.6526704,45.6414766 81.5323855,45.101679 82.6584082,46.1879866 L115.195075,77.5770775 C116.321311,78.6635907 115.8489,80.5618584 114.344783,80.9937713 L70.8837411,93.4737713 C69.3796496,93.9056768 67.97208,92.5473071 68.3502202,91.0288068 L79.2745952,47.1597159 Z M73.1460558,88.5943913 L109.83822,78.0580996 L82.3690046,51.5577296 L73.1460558,88.5943913 Z" id="Shape"></path>
                <path d="M70.1808333,258.061818 C67.5689867,258.061818 65.4516667,255.945346 65.4516667,253.334545 C65.4516667,250.723745 67.5689867,248.607273 70.1808333,248.607273 C72.79268,248.607273 74.91,250.723745 74.91,253.334545 C74.91,255.945346 72.79268,258.061818 70.1808333,258.061818 Z M80.6795833,214.381818 C78.0677367,214.381818 75.9504167,212.265346 75.9504167,209.654545 C75.9504167,207.043745 78.0677367,204.927273 80.6795833,204.927273 C83.29143,204.927273 85.40875,207.043745 85.40875,209.654545 C85.40875,212.265346 83.29143,214.381818 80.6795833,214.381818 Z M37.8333333,227.334545 C35.2214867,227.334545 33.1041667,225.218073 33.1041667,222.607273 C33.1041667,219.996472 35.2214867,217.88 37.8333333,217.88 C40.44518,217.88 42.5625,219.996472 42.5625,222.607273 C42.5625,225.218073 40.44518,227.334545 37.8333333,227.334545 Z M49.1360417,183.654545 C46.524195,183.654545 44.406875,181.538073 44.406875,178.927273 C44.406875,176.316472 46.524195,174.2 49.1360417,174.2 C51.7478883,174.2 53.8652083,176.316472 53.8652083,178.927273 C53.8652083,181.538073 51.7478883,183.654545 49.1360417,183.654545 Z M5.43854167,196.607273 C2.82669504,196.607273 0.709375,194.490801 0.709375,191.88 C0.709375,189.269199 2.82669504,187.152727 5.43854167,187.152727 C8.0503883,187.152727 10.1677083,189.269199 10.1677083,191.88 C10.1677083,194.490801 8.0503883,196.607273 5.43854167,196.607273 Z M92.0295833,171.174545 C89.4177367,171.174545 87.3004167,169.058073 87.3004167,166.447273 C87.3004167,163.836472 89.4177367,161.72 92.0295833,161.72 C94.64143,161.72 96.75875,163.836472 96.75875,166.447273 C96.75875,169.058073 94.64143,171.174545 92.0295833,171.174545 Z M124.140625,201.429091 C121.528778,201.429091 119.411458,199.312619 119.411458,196.701818 C119.411458,194.091018 121.528778,191.974545 124.140625,191.974545 C126.752472,191.974545 128.869792,194.091018 128.869792,196.701818 C128.869792,199.312619 126.752472,201.429091 124.140625,201.429091 Z M167.838125,189.327273 C165.226278,189.327273 163.108958,187.210801 163.108958,184.6 C163.108958,181.989199 165.226278,179.872727 167.838125,179.872727 C170.449972,179.872727 172.567292,181.989199 172.567292,184.6 C172.567292,187.210801 170.449972,189.327273 167.838125,189.327273 Z M200.422083,220.054545 C197.810237,220.054545 195.692917,217.938073 195.692917,215.327273 C195.692917,212.716472 197.810237,210.6 200.422083,210.6 C203.03393,210.6 205.15125,212.716472 205.15125,215.327273 C205.15125,217.938073 203.03393,220.054545 200.422083,220.054545 Z M210.920833,177.178182 C208.308987,177.178182 206.191667,175.06171 206.191667,172.450909 C206.191667,169.840108 208.308987,167.723636 210.920833,167.723636 C213.53268,167.723636 215.65,169.840108 215.65,172.450909 C215.65,175.06171 213.53268,177.178182 210.920833,177.178182 Z M221.230417,134.349091 C218.61857,134.349091 216.50125,132.232619 216.50125,129.621818 C216.50125,127.011018 218.61857,124.894545 221.230417,124.894545 C223.842263,124.894545 225.959583,127.011018 225.959583,129.621818 C225.959583,132.232619 223.842263,134.349091 221.230417,134.349091 Z M178.053125,146.545455 C175.441278,146.545455 173.323958,144.428982 173.323958,141.818182 C173.323958,139.207381 175.441278,137.090909 178.053125,137.090909 C180.664972,137.090909 182.782292,139.207381 182.782292,141.818182 C182.782292,144.428982 180.664972,146.545455 178.053125,146.545455 Z M135.490625,158.6 C132.878778,158.6 130.761458,156.483528 130.761458,153.872727 C130.761458,151.261927 132.878778,149.145455 135.490625,149.145455 C138.102472,149.145455 140.219792,151.261927 140.219792,153.872727 C140.219792,156.483528 138.102472,158.6 135.490625,158.6 Z M102.528333,127.069091 C99.9164867,127.069091 97.7991667,124.952619 97.7991667,122.341818 C97.7991667,119.731018 99.9164867,117.614545 102.528333,117.614545 C105.14018,117.614545 107.2575,119.731018 107.2575,122.341818 C107.2575,124.952619 105.14018,127.069091 102.528333,127.069091 Z M145.374583,114.92 C142.762737,114.92 140.645417,112.803528 140.645417,110.192727 C140.645417,107.581927 142.762737,105.465455 145.374583,105.465455 C147.98643,105.465455 150.10375,107.581927 150.10375,110.192727 C150.10375,112.803528 147.98643,114.92 145.374583,114.92 Z M60.2495833,139.974545 C57.6377367,139.974545 55.5204167,137.858073 55.5204167,135.247273 C55.5204167,132.636472 57.6377367,130.52 60.2495833,130.52 C62.86143,130.52 64.97875,132.636472 64.97875,135.247273 C64.97875,137.858073 62.86143,139.974545 60.2495833,139.974545 Z M71.78875,95.3018182 C69.1769034,95.3018182 67.0595833,93.1853461 67.0595833,90.5745455 C67.0595833,87.9637448 69.1769034,85.8472727 71.78875,85.8472727 C74.4005966,85.8472727 76.5179167,87.9637448 76.5179167,90.5745455 C76.5179167,93.1853461 74.4005966,95.3018182 71.78875,95.3018182 Z M113.5,84.0036364 C110.888153,84.0036364 108.770833,81.8871643 108.770833,79.2763636 C108.770833,76.665563 110.888153,74.5490909 113.5,74.5490909 C116.111847,74.5490909 118.229167,76.665563 118.229167,79.2763636 C118.229167,81.8871643 116.111847,84.0036364 113.5,84.0036364 Z M81.4835417,52.6618182 C78.871695,52.6618182 76.754375,50.5453461 76.754375,47.9345455 C76.754375,45.3237448 78.871695,43.2072727 81.4835417,43.2072727 C84.0953883,43.2072727 86.2127083,45.3237448 86.2127083,47.9345455 C86.2127083,50.5453461 84.0953883,52.6618182 81.4835417,52.6618182 Z M123.573125,39.7563636 C120.961278,39.7563636 118.843958,37.6398915 118.843958,35.0290909 C118.843958,32.4182903 120.961278,30.3018182 123.573125,30.3018182 C126.184972,30.3018182 128.302292,32.4182903 128.302292,35.0290909 C128.302292,37.6398915 126.184972,39.7563636 123.573125,39.7563636 Z M92.8335417,9.83272727 C90.221695,9.83272727 88.104375,7.71625518 88.104375,5.10545455 C88.104375,2.49465391 90.221695,0.378181818 92.8335417,0.378181818 C95.4453883,0.378181818 97.5627083,2.49465391 97.5627083,5.10545455 C97.5627083,7.71625518 95.4453883,9.83272727 92.8335417,9.83272727 Z M39.44125,64.8109091 C36.8294034,64.8109091 34.7120833,62.694437 34.7120833,60.0836364 C34.7120833,57.4728357 36.8294034,55.3563636 39.44125,55.3563636 C42.0530966,55.3563636 44.1704167,57.4728357 44.1704167,60.0836364 C44.1704167,62.694437 42.0530966,64.8109091 39.44125,64.8109091 Z" id="Combined-Shape"></path>
            </g>
        </g>
    </g>
</svg>