<?xml version="1.0" encoding="UTF-8"?>
<svg width="59px" height="59px" viewBox="0 0 59 59" version="1.1" xmlns="http://www.w3.org/2000/svg" xmlns:xlink="http://www.w3.org/1999/xlink">
    <!-- Generator: Sketch 52.6 (67491) - http://www.bohemiancoding.com/sketch -->
    <title>Group 5</title>
    <desc>Created with Sketch.</desc>
    <defs>
        <linearGradient x1="100.001122%" y1="49.9999957%" x2="-0.00112190113%" y2="49.9999957%" id="linearGradient-1">
            <stop stop-color="#F097A0" offset="0%"></stop>
            <stop stop-color="#F97599" offset="100%"></stop>
        </linearGradient>
    </defs>
    <g id="Bridge" stroke="none" stroke-width="1" fill="none" fill-rule="evenodd">
        <g id="Group-5">
            <rect id="Rectangle-Copy-4" fill="url(#linearGradient-1)" x="0" y="0" width="59" height="59" rx="6"></rect>
            <g id="Artis_icon-Copy-2" transform="translate(8.000000, 4.000000)" fill="#FFFFFF" fill-rule="nonzero">
                <path d="M24.9819611,38.6402306 C24.9082671,38.9379051 24.5433731,39.043562 24.3247808,38.8305205 L18.0048057,32.6710332 C17.7860074,32.457791 17.8778422,32.0852263 18.1700773,32.000543 L26.6212067,29.5515902 C26.9135106,29.4668869 27.1868963,29.7337655 27.1131155,30.0317906 L24.9819611,38.6402306 Z M26.1809459,30.5091038 L19.0454938,32.576802 L24.381571,37.7773762 L26.1809459,30.5091038 Z M27.1132125,30.0313978 C27.0398705,30.3289331 26.6754899,30.4350945 26.4565788,30.2227063 L20.1366037,24.091048 C19.9174598,23.8784339 20.0081978,23.5059029 20.2999797,23.420297 L28.7419231,20.9435152 C29.0343341,20.8577248 29.3087592,21.1244638 29.2351809,21.4229578 L27.1132125,30.0313978 Z M28.3030537,21.9030017 L21.1764872,23.993865 L26.5117187,29.1701222 L28.3030537,21.9030017 Z M14.4181463,49.6972307 C14.3447084,49.9951551 13.9795894,50.1010797 13.760869,49.8879133 L7.44089387,43.728426 C7.222132,43.5152193 7.3138938,43.1427219 7.60605601,43.0579675 L16.0479995,40.6090148 C16.3401566,40.5242619 16.6135652,40.790815 16.5401147,41.0887906 L14.4181463,49.6972307 Z M15.6085638,41.5664965 L8.48141804,43.634035 L13.8170832,48.8342076 L15.6085638,41.5664965 Z M8.09817122,43.5377434 C8.02470139,43.8357972 7.65933692,43.9416428 7.44068027,43.7282177 L1.12070519,37.5594541 C0.902070133,37.3460501 0.994173333,36.9735635 1.28646244,36.8890935 L9.72840589,34.449417 C10.0204777,34.3650099 10.2935475,34.6315006 10.2201396,34.9293034 L8.09817122,43.5377434 Z M9.28878035,35.4062316 L2.16144315,37.4659939 L7.49725163,42.674138 L9.28878035,35.4062316 Z M39.7531627,42.3596487 C39.6797247,42.6575731 39.3146058,42.7634977 39.0958853,42.5503313 L32.7759102,36.3908441 C32.5571484,36.1776374 32.6489102,35.8051399 32.9410724,35.7203856 L41.3830158,33.2714328 C41.675173,33.1866799 41.9485816,33.4532331 41.875131,33.7512087 L39.7531627,42.3596487 Z M40.9435801,34.2289145 L33.8164344,36.296453 L39.1520996,41.4966256 L40.9435801,34.2289145 Z M41.8752277,33.7508156 C41.80211,34.0487305 41.4372584,34.155081 41.2182823,33.9423084 L34.8983072,27.8013738 C34.6793277,27.5885978 34.7703334,27.2161461 35.0621684,27.1307524 L43.4949259,24.6632469 C43.7871059,24.5777523 44.0612154,24.8441038 43.9880101,25.1423756 L41.8752277,33.7508156 Z M43.0566955,25.6220321 L35.9382388,27.7049606 L41.2732041,32.8887901 L43.0566955,25.6220321 Z M33.4331392,36.2003574 C33.3596055,36.4980276 32.9948445,36.6038976 32.7761243,36.3910525 L26.4561492,30.2408416 C26.2370062,30.0275851 26.3289357,29.6546076 26.6214788,29.5700642 L35.0634223,27.1303877 C35.3555795,27.0459559 35.6286863,27.3126178 35.5551076,27.61047 L33.4331392,36.2003574 Z M34.6234127,28.0873133 L27.4976044,30.1466337 L32.8322683,35.3380004 L34.6234127,28.0873133 Z M16.5401147,41.0887906 C16.4666767,41.386715 16.1015578,41.4926396 15.8828373,41.2794733 L9.56286225,35.119986 C9.34410038,34.9067793 9.43586217,34.5342819 9.72802438,34.4495275 L18.1699678,32.0005747 C18.462125,31.9158218 18.7355336,32.182375 18.662083,32.4803506 L16.5401147,41.0887906 Z M17.7305321,32.9580564 L10.6033864,35.0255949 L15.9390516,40.2257676 L17.7305321,32.9580564 Z M18.6619128,32.4810387 C18.5881231,32.7781363 18.2241356,32.8838291 18.0054493,32.6716591 L11.6854742,26.5400008 C11.4659124,26.3269813 11.5574854,25.9536787 11.8501022,25.8688847 L20.3012317,23.419932 C20.5936644,23.3351914 20.8671057,23.6023282 20.7930672,23.9004276 L18.6619128,32.4810387 Z M19.8603903,24.3776137 L12.7272407,26.4446447 L18.061596,31.6200518 L19.8603903,24.3776137 Z M20.7932374,23.8997396 C20.7197995,24.1976639 20.3546806,24.3035885 20.1359601,24.0904222 L13.815985,17.9309349 C13.5972231,17.7177282 13.6889849,17.3452308 13.9811471,17.2604764 L22.4230906,14.8115237 C22.7152478,14.7267708 22.9886564,14.9933239 22.9152058,15.2912995 L20.7932374,23.8997396 Z M21.9836549,15.7690053 L14.8565092,17.8365439 L20.1921743,23.0367165 L21.9836549,15.7690053 Z M14.4732624,17.7402523 C14.3996662,18.0388184 14.0333291,18.14435 13.8149275,17.9299004 L7.5041384,11.7333078 C7.28616359,11.5192773 7.37930212,11.1471256 7.67177772,11.0634749 L16.1045352,8.65162746 C16.396373,8.56815912 16.6685228,8.83447948 16.5952307,9.13181225 L14.4732624,17.7402523 Z M15.6643911,9.60663268 L8.5450096,11.6428423 L13.8729127,16.8743347 L15.6643911,9.60663268 Z M22.9152058,15.2912995 C22.8417679,15.5892239 22.476649,15.6951485 22.2579285,15.4819821 L15.9379534,9.32249487 C15.7191915,9.10928818 15.8109533,8.73679074 16.1031155,8.65203639 L24.545059,6.20308362 C24.8372161,6.11833073 25.1106248,6.38488387 25.0371742,6.68285948 L22.9152058,15.2912995 Z M24.1056233,7.16056529 L16.9784776,9.22810381 L22.3141427,14.4282765 L24.1056233,7.16056529 Z M17.9509205,0.30276932 C18.0243584,0.00484493597 18.3894774,-0.101079653 18.6081979,0.112086699 L24.9281729,6.27157397 C25.1469348,6.48478066 25.055173,6.8572781 24.7630108,6.94203245 L16.3210673,9.39098522 C16.0289102,9.47573811 15.7555016,9.20918497 15.8289521,8.91120936 L17.9509205,0.30276932 Z M16.760503,8.43350355 L23.8876488,6.36596503 L18.5519836,1.16579239 L16.760503,8.43350355 Z M9.45386099,34.7365295 C9.52729893,34.4386051 9.89241785,34.3326805 10.1111383,34.5458469 L16.4311134,40.7053341 C16.6498753,40.9185408 16.5581135,41.2910383 16.2659513,41.3757926 L7.82400782,43.8247454 C7.53185066,43.9094983 7.25844204,43.6429451 7.33189261,43.3449695 L9.45386099,34.7365295 Z M8.26344352,42.8672637 L15.3905892,40.7997252 L10.0549241,35.5995526 L8.26344352,42.8672637 Z M34.7888774,27.4175002 C34.8623153,27.1195758 35.2274342,27.0136512 35.4461547,27.2268176 L41.7661298,33.3863048 C41.9848917,33.5995115 41.8931299,33.972009 41.6009677,34.0567633 L33.1590242,36.5057161 C32.866867,36.590469 32.5934584,36.3239158 32.666909,36.0259402 L34.7888774,27.4175002 Z M33.5984599,35.5482344 L40.7256056,33.4806959 L35.3899405,28.2805233 L33.5984599,35.5482344 Z M26.3470309,29.8567839 C26.4207569,29.5589801 26.7858963,29.4534023 27.0044249,29.6667023 L33.3243999,35.8354659 C33.5430713,36.0489054 33.4508952,36.421459 33.1585336,36.5058581 L24.7074041,38.9455345 C24.4151856,39.0298923 24.1421385,38.7630763 24.2158765,38.4652239 L26.3470309,29.8567839 Z M25.1478536,37.9886883 L32.2834986,35.9287666 L26.9472771,30.7202194 L25.1478536,37.9886883 Z M11.5758294,26.1466421 C11.6492673,25.8487177 12.0143862,25.7427931 12.2331067,25.9559595 L18.5530818,32.1154468 C18.7718437,32.3286535 18.6800819,32.7011509 18.3879197,32.7859053 L9.9459762,35.234858 C9.65381903,35.3196109 9.38041042,35.0530578 9.45386099,34.7550822 L11.5758294,26.1466421 Z M12.1768925,27.0096652 L10.3854119,34.2773763 L17.5125576,32.2098378 L12.1768925,27.0096652 Z M20.0270559,23.7065729 C20.1007498,23.4088985 20.4656438,23.3032416 20.6842362,23.5162831 L27.0042113,29.6757703 C27.2230095,29.8890125 27.1311747,30.2615772 26.8389397,30.3462605 L18.3878102,32.7952133 C18.0955063,32.8799166 17.8221207,32.6130381 17.8959015,32.315013 L20.0270559,23.7065729 Z M18.8280711,31.8376998 L25.9635231,29.7700016 L20.6274459,24.5694274 L18.8280711,31.8376998 Z M22.1489272,15.0985256 C22.2223652,14.8006013 22.5874841,14.6946767 22.8062046,14.907843 L29.1261796,21.0673303 C29.3449415,21.280537 29.2531797,21.6530344 28.9610175,21.7377888 L20.519074,24.1867415 C20.2269169,24.2714944 19.9535083,24.0049413 20.0269588,23.7069657 L22.1489272,15.0985256 Z M20.9585097,23.2292599 L28.0856555,21.1617214 L22.7499903,15.9615487 L20.9585097,23.2292599 Z M15.8289521,8.93903837 C15.9023901,8.64111399 16.267509,8.5351894 16.4862295,8.74835575 L22.8062046,14.907843 C23.0249664,15.1210497 22.9332046,15.4935472 22.6410424,15.5783015 L14.199099,18.0272543 C13.9069418,18.1120072 13.6335332,17.845454 13.7069838,17.5474784 L15.8289521,8.93903837 Z M14.6385347,17.0697726 L21.7656804,15.0022341 L16.4300153,9.80206144 L14.6385347,17.0697726 Z" id="Shape"></path>
                <path d="M13.5704388,50 C13.060245,50 12.6466513,49.5893274 12.6466513,49.0827371 C12.6466513,48.5761468 13.060245,48.1654742 13.5704388,48.1654742 C14.0806326,48.1654742 14.4942263,48.5761468 14.4942263,49.0827371 C14.4942263,49.5893274 14.0806326,50 13.5704388,50 Z M15.6212471,41.5244909 C15.1110533,41.5244909 14.6974596,41.1138183 14.6974596,40.607228 C14.6974596,40.1006377 15.1110533,39.6899651 15.6212471,39.6899651 C16.1314409,39.6899651 16.5450346,40.1006377 16.5450346,40.607228 C16.5450346,41.1138183 16.1314409,41.5244909 15.6212471,41.5244909 Z M7.2517321,44.0377912 C6.74153834,44.0377912 6.32794457,43.6271186 6.32794457,43.1205283 C6.32794457,42.613938 6.74153834,42.2032655 7.2517321,42.2032655 C7.76192587,42.2032655 8.17551963,42.613938 8.17551963,43.1205283 C8.17551963,43.6271186 7.76192587,44.0377912 7.2517321,44.0377912 Z M9.4595843,35.5622822 C8.94939053,35.5622822 8.53579677,35.1516096 8.53579677,34.6450193 C8.53579677,34.138429 8.94939053,33.7277564 9.4595843,33.7277564 C9.96977806,33.7277564 10.3833718,34.138429 10.3833718,34.6450193 C10.3833718,35.1516096 9.96977806,35.5622822 9.4595843,35.5622822 Z M0.923787529,38.0755825 C0.413593765,38.0755825 -1.5187851e-13,37.6649099 -1.5187851e-13,37.1583196 C-1.5187851e-13,36.6517293 0.413593765,36.2410567 0.923787529,36.2410567 C1.43398129,36.2410567 1.84757506,36.6517293 1.84757506,37.1583196 C1.84757506,37.6649099 1.43398129,38.0755825 0.923787529,38.0755825 Z M17.8383372,33.1407081 C17.3281434,33.1407081 16.9145497,32.7300355 16.9145497,32.2234452 C16.9145497,31.7168549 17.3281434,31.3061824 17.8383372,31.3061824 C18.3485309,31.3061824 18.7621247,31.7168549 18.7621247,32.2234452 C18.7621247,32.7300355 18.3485309,33.1407081 17.8383372,33.1407081 Z M24.1108545,39.0111906 C23.6006607,39.0111906 23.187067,38.600518 23.187067,38.0939277 C23.187067,37.5873374 23.6006607,37.1766648 24.1108545,37.1766648 C24.6210483,37.1766648 25.034642,37.5873374 25.034642,38.0939277 C25.034642,38.600518 24.6210483,39.0111906 24.1108545,39.0111906 Z M32.6466513,36.6629976 C32.1364575,36.6629976 31.7228637,36.252325 31.7228637,35.7457347 C31.7228637,35.2391444 32.1364575,34.8284718 32.6466513,34.8284718 C33.156845,34.8284718 33.5704388,35.2391444 33.5704388,35.7457347 C33.5704388,36.252325 33.156845,36.6629976 32.6466513,36.6629976 Z M39.0115473,42.6252064 C38.5013536,42.6252064 38.0877598,42.2145338 38.0877598,41.7079435 C38.0877598,41.2013532 38.5013536,40.7906806 39.0115473,40.7906806 C39.5217411,40.7906806 39.9353349,41.2013532 39.9353349,41.7079435 C39.9353349,42.2145338 39.5217411,42.6252064 39.0115473,42.6252064 Z M41.0623557,34.305632 C40.5521619,34.305632 40.1385681,33.8949594 40.1385681,33.3883691 C40.1385681,32.8817788 40.5521619,32.4711062 41.0623557,32.4711062 C41.5725494,32.4711062 41.9861432,32.8817788 41.9861432,33.3883691 C41.9861432,33.8949594 41.5725494,34.305632 41.0623557,34.305632 Z M43.0762125,25.9952302 C42.5660187,25.9952302 42.1524249,25.5845576 42.1524249,25.0779673 C42.1524249,24.571377 42.5660187,24.1607045 43.0762125,24.1607045 C43.5864062,24.1607045 44,24.571377 44,25.0779673 C44,25.5845576 43.5864062,25.9952302 43.0762125,25.9952302 Z M34.6420323,28.3617685 C34.1318386,28.3617685 33.7182448,27.9510959 33.7182448,27.4445056 C33.7182448,26.9379153 34.1318386,26.5272427 34.6420323,26.5272427 C35.1522261,26.5272427 35.5658199,26.9379153 35.5658199,27.4445056 C35.5658199,27.9510959 35.1522261,28.3617685 34.6420323,28.3617685 Z M26.3279446,30.7007888 C25.8177508,30.7007888 25.404157,30.2901163 25.404157,29.783526 C25.404157,29.2769357 25.8177508,28.8662631 26.3279446,28.8662631 C26.8381383,28.8662631 27.2517321,29.2769357 27.2517321,29.783526 C27.2517321,30.2901163 26.8381383,30.7007888 26.3279446,30.7007888 Z M19.8891455,24.5826454 C19.3789517,24.5826454 18.965358,24.1719728 18.965358,23.6653825 C18.965358,23.1587922 19.3789517,22.7481196 19.8891455,22.7481196 C20.3993393,22.7481196 20.812933,23.1587922 20.812933,23.6653825 C20.812933,24.1719728 20.3993393,24.5826454 19.8891455,24.5826454 Z M28.2586605,22.2252798 C27.7484667,22.2252798 27.334873,21.8146072 27.334873,21.3080169 C27.334873,20.8014266 27.7484667,20.390754 28.2586605,20.390754 C28.7688543,20.390754 29.182448,20.8014266 29.182448,21.3080169 C29.182448,21.8146072 28.7688543,22.2252798 28.2586605,22.2252798 Z M11.630485,27.0867731 C11.1202912,27.0867731 10.7066975,26.6761005 10.7066975,26.1695102 C10.7066975,25.6629199 11.1202912,25.2522473 11.630485,25.2522473 C12.1406788,25.2522473 12.5542725,25.6629199 12.5542725,26.1695102 C12.5542725,26.6761005 12.1406788,27.0867731 11.630485,27.0867731 Z M13.8845266,18.4186388 C13.3743328,18.4186388 12.960739,18.0079662 12.960739,17.5013759 C12.960739,16.9947856 13.3743328,16.584113 13.8845266,16.584113 C14.3947203,16.584113 14.8083141,16.9947856 14.8083141,17.5013759 C14.8083141,18.0079662 14.3947203,18.4186388 13.8845266,18.4186388 Z M22.0323326,16.2263805 C21.5221388,16.2263805 21.108545,15.8157079 21.108545,15.3091176 C21.108545,14.8025273 21.5221388,14.3918547 22.0323326,14.3918547 C22.5425263,14.3918547 22.9561201,14.8025273 22.9561201,15.3091176 C22.9561201,15.8157079 22.5425263,16.2263805 22.0323326,16.2263805 Z M15.778291,10.1449275 C15.2680972,10.1449275 14.8545035,9.73425495 14.8545035,9.22766465 C14.8545035,8.72107434 15.2680972,8.31040176 15.778291,8.31040176 C16.2884848,8.31040176 16.7020785,8.72107434 16.7020785,9.22766465 C16.7020785,9.73425495 16.2884848,10.1449275 15.778291,10.1449275 Z M24,7.64079985 C23.4898062,7.64079985 23.0762125,7.23012727 23.0762125,6.72353697 C23.0762125,6.21694666 23.4898062,5.80627408 24,5.80627408 C24.5101938,5.80627408 24.9237875,6.21694666 24.9237875,6.72353697 C24.9237875,7.23012727 24.5101938,7.64079985 24,7.64079985 Z M17.9953811,1.83452578 C17.4851873,1.83452578 17.0715935,1.42385319 17.0715935,0.917262888 C17.0715935,0.410672583 17.4851873,-7.99360578e-15 17.9953811,-7.99360578e-15 C18.5055748,-7.99360578e-15 18.9191686,0.410672583 18.9191686,0.917262888 C18.9191686,1.42385319 18.5055748,1.83452578 17.9953811,1.83452578 Z M7.56581986,12.5022932 C7.0556261,12.5022932 6.64203233,12.0916206 6.64203233,11.5850303 C6.64203233,11.07844 7.0556261,10.6677674 7.56581986,10.6677674 C8.07601363,10.6677674 8.48960739,11.07844 8.48960739,11.5850303 C8.48960739,12.0916206 8.07601363,12.5022932 7.56581986,12.5022932 Z" id="Combined-Shape"></path>
            </g>
        </g>
    </g>
</svg>