<?xml version="1.0" standalone="no"?>
<!DOCTYPE svg PUBLIC "-//W3C//DTD SVG 20010904//EN"
 "http://www.w3.org/TR/2001/REC-SVG-20010904/DTD/svg10.dtd">
<svg version="1.0" xmlns="http://www.w3.org/2000/svg"
 width="512.000000pt" height="512.000000pt" viewBox="0 0 512.000000 512.000000"
 preserveAspectRatio="xMidYMid meet">
<metadata>
Created by potrace 1.11, written by Peter Selinger 2001-2013
</metadata>
<g transform="translate(0.000000,512.000000) scale(0.100000,-0.100000)"
fill="#000000" stroke="none">
<path d="M2331 5109 c-471 -42 -934 -222 -1320 -512 -119 -90 -318 -282 -423
-407 -231 -277 -418 -644 -508 -1000 -57 -225 -73 -360 -74 -625 0 -256 10
-357 60 -580 73 -329 239 -682 455 -972 94 -126 366 -398 492 -492 803 -599
1840 -687 2725 -230 399 205 746 525 996 919 63 98 185 349 231 474 50 136
100 337 126 507 32 205 32 533 0 738 -43 285 -111 500 -236 756 -121 248 -264
452 -455 649 -544 562 -1297 843 -2069 775z m989 -799 c11 -6 169 -209 352
-453 182 -243 434 -578 560 -744 189 -251 228 -308 228 -335 0 -49 -758 -1758
-785 -1769 -35 -15 -1840 -185 -1873 -177 -25 7 -124 132 -583 735 -304 401
-558 739 -565 752 -7 13 -10 40 -7 60 4 30 674 1584 734 1703 14 28 28 40 56
48 37 10 1736 187 1821 189 24 1 52 -4 62 -9z"/>
<path d="M2203 4011 c-303 -31 -554 -59 -558 -63 -8 -8 216 -407 229 -408 7 0
791 444 896 509 45 27 98 30 -567 -38z"/>
<path d="M2543 3687 l-653 -373 -491 -463 c-270 -255 -487 -467 -482 -471 4
-4 303 -177 663 -383 l655 -375 635 -188 c349 -103 641 -189 648 -191 9 -4 12
153 12 762 l0 768 -150 605 c-176 710 -169 682 -178 682 -4 -1 -301 -168 -659
-373z m418 -643 c42 -21 64 -75 49 -120 -20 -59 -36 -64 -207 -64 l-153 0 0
-272 c1 -293 1 -298 53 -317 30 -12 56 -4 100 31 63 51 157 4 157 -79 0 -31
-8 -44 -50 -84 -135 -131 -352 -86 -434 90 -20 43 -21 65 -24 340 l-3 294 -70
-5 c-57 -4 -78 -11 -112 -35 -57 -41 -79 -46 -122 -29 -47 20 -71 72 -55 122
18 53 102 113 187 133 21 5 177 9 346 10 261 1 313 -1 338 -15z"/>
<path d="M1458 3764 c-115 -261 -427 -979 -425 -981 7 -6 672 630 669 640 -3
11 -210 377 -218 386 -2 2 -14 -18 -26 -45z"/>
<path d="M3494 3745 c3 -11 52 -210 109 -443 57 -232 106 -425 109 -427 3 -3
105 -4 227 -3 l222 3 -331 440 c-183 242 -334 442 -337 445 -3 3 -3 -4 1 -15z"/>
<path d="M3730 2128 c0 -314 4 -537 9 -528 8 13 354 799 437 993 l33 77 -239
0 -240 0 0 -542z"/>
<path d="M1141 1999 c374 -495 673 -884 680 -884 9 0 229 360 229 374 0 5
-186 115 -412 244 -227 130 -438 251 -468 268 l-55 32 26 -34z"/>
<path d="M2128 1228 c-59 -100 -106 -183 -105 -184 2 -1 974 98 1057 108 19 2
-815 258 -840 258 -3 0 -54 -82 -112 -182z"/>
</g>
</svg>
