<?xml version="1.0" standalone="no"?>
<!DOCTYPE svg PUBLIC "-//W3C//DTD SVG 20010904//EN"
 "http://www.w3.org/TR/2001/REC-SVG-20010904/DTD/svg10.dtd">
<svg version="1.0" xmlns="http://www.w3.org/2000/svg"
 width="512.000000pt" height="512.000000pt" viewBox="0 0 512.000000 512.000000"
 preserveAspectRatio="xMidYMid meet">
<metadata>
Created by potrace 1.11, written by Peter Selinger 2001-2013
</metadata>
<g transform="translate(0.000000,512.000000) scale(0.100000,-0.100000)"
fill="#000000" stroke="none">
<path d="M2325 5109 c-581 -56 -1116 -301 -1533 -704 -230 -222 -386 -432
-521 -706 -124 -249 -197 -478 -243 -760 -31 -196 -32 -555 0 -754 45 -284
117 -512 243 -764 249 -503 646 -900 1150 -1150 372 -185 717 -266 1139 -266
254 0 400 18 626 75 193 49 313 93 499 185 281 138 451 260 680 490 218 218
343 388 476 647 369 725 369 1591 0 2316 -133 259 -258 429 -476 647 -218 218
-388 343 -647 476 -425 216 -924 312 -1393 268z m990 -795 c16 -7 191 -236
823 -1078 264 -350 322 -434 322 -460 0 -47 -751 -1736 -781 -1758 -20 -14
-187 -33 -909 -102 -487 -48 -906 -86 -931 -86 -30 0 -54 6 -67 18 -24 20
-1100 1437 -1118 1471 -7 13 -10 39 -7 60 5 30 675 1585 734 1703 14 28 28 40
56 48 37 10 1734 187 1820 189 23 0 49 -2 58 -5z"/>
<path d="M2198 4011 c-300 -31 -549 -59 -553 -63 -8 -8 216 -407 229 -408 8 0
866 486 911 517 18 12 18 13 -10 12 -17 -1 -276 -27 -577 -58z"/>
<path d="M2543 3687 l-652 -372 -491 -464 c-270 -255 -488 -467 -483 -471 4
-5 303 -177 663 -383 l655 -375 630 -186 c347 -103 638 -189 648 -192 16 -5
17 36 17 763 l0 768 -159 640 c-87 351 -162 640 -167 642 -5 1 -302 -165 -661
-370z m468 -456 c40 -40 40 -89 0 -133 l-29 -33 -305 -5 -305 -5 175 -215 c97
-118 182 -230 190 -247 11 -28 11 -38 0 -65 -8 -18 -93 -130 -190 -248 l-176
-215 305 -5 306 -5 29 -33 c40 -44 40 -93 0 -133 l-29 -29 -432 0 -432 0 -29
29 c-22 23 -29 39 -29 69 0 38 15 59 225 316 124 152 225 280 225 286 0 6
-101 134 -225 286 -216 265 -225 277 -225 319 0 36 5 48 31 69 l31 26 430 0
430 0 29 -29z"/>
<path d="M1476 3801 c-12 -19 -445 -1015 -443 -1018 7 -6 672 630 669 640 -3
10 -209 376 -217 385 -2 2 -6 -1 -9 -7z"/>
<path d="M3494 3740 c64 -265 214 -862 218 -865 3 -3 105 -4 227 -3 l223 3
-332 440 c-183 242 -334 442 -337 445 -2 3 -2 -6 1 -20z"/>
<path d="M3730 2128 c0 -330 4 -537 10 -528 7 13 409 926 456 1038 l14 32
-240 0 -240 0 0 -542z"/>
<path d="M1141 1999 c410 -543 673 -884 680 -884 9 0 229 359 229 374 0 5
-188 116 -417 247 -230 131 -440 252 -468 268 l-50 29 26 -34z"/>
<path d="M2127 1228 c-58 -100 -105 -183 -104 -184 1 -1 234 23 517 52 283 29
526 53 539 54 13 0 22 2 20 4 -5 5 -847 256 -858 256 -4 0 -55 -82 -114 -182z"/>
</g>
</svg>
