<svg xmlns="http://www.w3.org/2000/svg" viewBox="0 0 20 20">
  <defs>
    <style>
      .cls-1 {
        fill: #129c6b;
      }
    </style>
  </defs>
  <title>status</title>
  <g id="Layer_2" data-name="Layer 2">
    <g id="Layer_3" data-name="Layer 3">
      <path class="cls-1" d="M10,0A10,10,0,1,0,20,10,10,10,0,0,0,10,0Zm0,2a8,8,0,0,1,6.36,3.17l-3.51,2a4,4,0,0,0-5.7,0l-3.51-2A8,8,0,0,1,10,2Zm0,10a2,2,0,1,1,2-2A2,2,0,0,1,10,12ZM2,10a7.81,7.81,0,0,1,.63-3.1l3.53,2A4.12,4.12,0,0,0,6,10a4,4,0,0,0,3,3.86v4.07A8,8,0,0,1,2,10Zm9,7.93V13.86A4,4,0,0,0,14,10a4.12,4.12,0,0,0-.16-1.06l3.53-2A7.81,7.81,0,0,1,18,10,8,8,0,0,1,11,17.93Z"/>
    </g>
  </g>
</svg>
