<svg xmlns="http://www.w3.org/2000/svg" viewBox="0 0 20 18">
  <defs>
    <style>
      .cls-1 {
        fill: #129c6b;
      }
    </style>
  </defs>
  <title>wallet</title>
  <g id="Layer_2" data-name="Layer 2">
    <g id="Layer_3" data-name="Layer 3">
      <g>
        <path class="cls-1" d="M19,4H17a1,1,0,0,1-1-1,1,1,0,0,1,1-1,1,1,0,0,0,0-2H3A3,3,0,0,0,0,3V15a3,3,0,0,0,3,3H19a1,1,0,0,0,1-1V5A1,1,0,0,0,19,4ZM2.29,2.3A1,1,0,0,1,3,2H14.17a3,3,0,0,0,0,2H3A1,1,0,0,1,2,3,1,1,0,0,1,2.29,2.3ZM18,16H3a1,1,0,0,1-1-1V5.83l.27.07.17,0A2.6,2.6,0,0,0,3,6H18Z"/>
        <circle class="cls-1" cx="15" cy="11" r="1"/>
      </g>
    </g>
  </g>
</svg>
