<svg xmlns="http://www.w3.org/2000/svg" viewBox="0 0 20 20">
  <defs>
    <style>
      .cls-1 {
        fill: #F97599;
      }
    </style>
  </defs>
  <title>events</title>
  <g id="Layer_2" data-name="Layer 2">
    <g id="Layer_3" data-name="Layer 3">
      <g>
        <path class="cls-1" d="M19,11a1,1,0,0,0-1,1,3,3,0,0,1-3,3H3.41l1.3-1.29a1,1,0,0,0-1.42-1.42l-3,3a1,1,0,0,0-.21.33,1,1,0,0,0,0,.76,1,1,0,0,0,.21.33l3,3a1,1,0,0,0,1.42,0,1,1,0,0,0,0-1.42L3.41,17H15a5,5,0,0,0,5-5A1,1,0,0,0,19,11Z"/>
        <path class="cls-1" d="M1,9A1,1,0,0,0,2,8,3,3,0,0,1,5,5H16.59l-1.3,1.29a1,1,0,0,0,0,1.42,1,1,0,0,0,1.42,0l3-3a1,1,0,0,0,.21-.33,1,1,0,0,0,0-.76,1,1,0,0,0-.21-.33l-3-3a1,1,0,0,0-1.42,1.42L16.59,3H5A5,5,0,0,0,0,8,1,1,0,0,0,1,9Z"/>
      </g>
    </g>
  </g>
</svg>
