<?xml version="1.0" encoding="UTF-8"?>
<svg width="16px" height="16px" viewBox="0 0 30 30" version="1.1" xmlns="http://www.w3.org/2000/svg" xmlns:xlink="http://www.w3.org/1999/xlink">
    <!-- Generator: Sketch 52.6 (67491) - http://www.bohemiancoding.com/sketch -->
    <title>github</title>
    <desc>Created with Sketch.</desc>
    <g id="Bridge" stroke="none" stroke-width="1" fill="none" fill-rule="evenodd">
        <g id="sigma1-events" transform="translate(-1170.000000, -752.000000)" fill="#22493C" fill-rule="nonzero">
            <path d="M1172,752 L1198,752 C1199.10457,752 1200,752.895431 1200,754 L1200,780 C1200,781.104569 1199.10457,782 1198,782 L1172,782 C1170.89543,782 1170,781.104569 1170,780 L1170,754 C1170,752.895431 1170.89543,752 1172,752 Z M1184.99948,759 C1180.30595,759 1176.5,762.672336 1176.5,767.203213 C1176.5,770.826706 1178.93521,773.900834 1182.31329,774.985968 C1182.73855,775.060996 1182.89352,774.807714 1182.89352,774.590183 C1182.89352,774.395816 1182.88622,773.879685 1182.88204,773.19537 C1180.5178,773.690856 1180.01897,772.095633 1180.01897,772.095633 C1179.63232,771.147966 1179.07505,770.896195 1179.07505,770.896195 C1178.30331,770.387113 1179.13349,770.397184 1179.13349,770.397184 C1179.98662,770.455595 1180.43536,771.242632 1180.43536,771.242632 C1181.19352,772.49595 1182.42443,772.133902 1182.90918,771.924429 C1182.9864,771.394198 1183.20556,771.032655 1183.44871,770.827713 C1181.56139,770.620757 1179.57701,769.916804 1179.57701,766.773691 C1179.57701,765.878392 1179.90835,765.146241 1180.45206,764.572706 C1180.3644,764.365247 1180.07271,763.53138 1180.53502,762.401934 C1180.53502,762.401934 1181.24883,762.181382 1182.87265,763.24285 C1183.55046,763.060568 1184.27784,762.96993 1185.00052,762.966405 C1185.72216,762.96993 1186.44954,763.060568 1187.12839,763.24285 C1188.75117,762.181382 1189.46341,762.401934 1189.46341,762.401934 C1189.92729,763.53138 1189.6356,764.365247 1189.54794,764.572706 C1190.09269,765.146241 1190.42195,765.878392 1190.42195,766.773691 C1190.42195,769.924861 1188.43444,770.618239 1186.54085,770.821167 C1186.8461,771.074449 1187.11796,771.57497 1187.11796,772.340355 C1187.11796,773.436567 1187.10752,774.321292 1187.10752,774.590183 C1187.10752,774.809728 1187.26041,775.065024 1187.69193,774.984961 C1191.06636,773.897812 1193.5,770.825699 1193.5,767.203213 C1193.5,762.672336 1189.69405,759 1184.99948,759 Z" id="github"></path>
        </g>
    </g>
</svg>