<?xml version="1.0" encoding="UTF-8"?>
<svg width="16px" height="16px" viewBox="0 0 30 30" version="1.1" xmlns="http://www.w3.org/2000/svg" xmlns:xlink="http://www.w3.org/1999/xlink">
    <!-- Generator: Sketch 52.6 (67491) - http://www.bohemiancoding.com/sketch -->
    <title>linkedin</title>
    <desc>Created with Sketch.</desc>
    <g id="Bridge" stroke="none" stroke-width="1" fill="none" fill-rule="evenodd">
        <g id="sigma1-events" transform="translate(-1250.000000, -752.000000)" fill="#22493C">
            <path d="M1252,752 L1278,752 C1279.10457,752 1280,752.895431 1280,754 L1280,780 C1280,781.104569 1279.10457,782 1278,782 L1252,782 C1250.89543,782 1250,781.104569 1250,780 L1250,754 C1250,752.895431 1250.89543,752 1252,752 Z M1260.6333,759 L1260.6333,769.795727 L1257.20279,769.795727 L1257.20279,759 L1260.6333,759 Z M1260.85891,773.134691 C1260.83661,774.19401 1260.11432,775 1258.94072,775 C1257.76725,775 1257,774.19401 1257,773.134691 C1257,772.098692 1257.74444,771.269702 1258.89568,771.269702 L1258.91797,771.269702 C1260.11432,771.269702 1260.85891,772.098692 1260.85891,773.134691 Z M1265.962,759 L1265.962,765.028791 C1265.962,765.351443 1265.98429,765.673775 1266.07487,765.904422 C1266.32287,766.549087 1266.88733,767.216752 1267.83501,767.216752 C1269.07635,767.216752 1269.57291,766.226755 1269.57291,764.775462 L1269.57291,759 L1273.00312,759 L1273.00312,765.190117 C1273.00312,768.50608 1271.31069,770.049057 1269.05369,770.049057 C1267.20303,770.049057 1266.39058,768.967056 1265.93918,768.230069 L1265.96209,768.230069 L1265.96209,769.795727 L1262.53161,769.795727 C1262.57662,768.782729 1262.53151,759 1262.53151,759 L1265.962,759 Z" id="linkedin" transform="translate(1265.000000, 767.000000) scale(1, -1) translate(-1265.000000, -767.000000) "></path>
        </g>
    </g>
</svg>