<?xml version="1.0" encoding="UTF-8"?>
<svg width="16px" height="16px" viewBox="0 0 30 30" version="1.1" xmlns="http://www.w3.org/2000/svg" xmlns:xlink="http://www.w3.org/1999/xlink">
    <!-- Generator: Sketch 52.6 (67491) - http://www.bohemiancoding.com/sketch -->
    <title>medium</title>
    <desc>Created with Sketch.</desc>
    <g id="Bridge" stroke="none" stroke-width="1" fill="none" fill-rule="evenodd">
        <g id="sigma1-events" transform="translate(-1210.000000, -752.000000)" fill="#22493C">
            <path d="M1212,752 L1238,752 C1239.10457,752 1240,752.895431 1240,754 L1240,780 C1240,781.104569 1239.10457,782 1238,782 L1212,782 C1210.89543,782 1210,781.104569 1210,780 L1210,754 C1210,752.895431 1210.89543,752 1212,752 Z M1218.13445,762.855967 L1218.13445,770.650206 C1218.18341,770.931373 1218.09294,771.218587 1217.89076,771.423868 L1216,773.670782 L1216,773.967078 L1221.36134,773.967078 L1221.36134,773.670782 L1219.47059,771.423868 C1219.26692,771.218927 1219.17085,770.933605 1219.21008,770.650206 L1219.21008,763.909465 L1223.91597,773.967078 L1224.46218,773.967078 L1228.5042,763.909465 L1228.5042,771.925926 C1228.5042,772.139918 1228.5042,772.18107 1228.36134,772.320988 L1226.90756,773.703704 L1226.90756,774 L1233.96639,774 L1233.96639,773.703704 L1232.56303,772.353909 C1232.43914,772.261395 1232.37769,772.109342 1232.40336,771.958848 L1232.40336,762.041152 C1232.37769,761.890658 1232.43914,761.738604 1232.56303,761.646091 L1234,760.296296 L1234,760 L1229.02521,760 L1225.47899,768.666667 L1221.44538,760 L1216.22689,760 L1216.22689,760.296296 L1217.90756,762.279835 C1218.07256,762.425531 1218.15682,762.639492 1218.13445,762.855967 Z" id="medium"></path>
        </g>
    </g>
</svg>