<?xml version="1.0" encoding="UTF-8"?>
<svg width="30px" height="30px" viewBox="0 0 30 30" version="1.1" xmlns="http://www.w3.org/2000/svg" xmlns:xlink="http://www.w3.org/1999/xlink">
    <!-- Generator: Sketch 52.6 (67491) - http://www.bohemiancoding.com/sketch -->
    <title>telegram</title>
    <desc>Created with Sketch.</desc>
    <g id="Bridge" stroke="none" stroke-width="1" fill="none" fill-rule="evenodd">
        <g id="sigma1-events" transform="translate(-1130.000000, -752.000000)" fill="#22493C" fill-rule="nonzero">
            <path d="M1143.30812,769.034742 L1143.06061,772.85205 C1143.42424,772.85205 1143.58491,772.680856 1143.78788,772.477718 L1145.53498,770.728919 L1149.1697,773.49328 C1149.83861,773.873214 1150.32138,773.676503 1150.488,772.853984 L1152.87406,761.279278 C1153.11835,760.271053 1152.50072,759.81377 1151.8608,760.112836 L1137.84989,765.67428 C1136.89352,766.069162 1136.89909,766.618419 1137.67556,766.863157 L1141.27108,768.018381 L1149.59508,762.61241 C1149.98804,762.367111 1150.34869,762.498989 1150.05268,762.76943 L1143.30822,769.034801 Z M1132,752 L1158,752 C1159.10457,752 1160,752.895431 1160,754 L1160,780 C1160,781.104569 1159.10457,782 1158,782 L1132,782 C1130.89543,782 1130,781.104569 1130,780 L1130,754 C1130,752.895431 1130.89543,752 1132,752 Z" id="telegram"></path>
        </g>
    </g>
</svg>