<?xml version="1.0" encoding="UTF-8"?>
<svg width="30px" height="30px" viewBox="0 0 30 30" version="1.1" xmlns="http://www.w3.org/2000/svg" xmlns:xlink="http://www.w3.org/1999/xlink">
    <!-- Generator: Sketch 52.6 (67491) - http://www.bohemiancoding.com/sketch -->
    <title>twitter</title>
    <desc>Created with Sketch.</desc>
    <g id="Bridge" stroke="none" stroke-width="1" fill="none" fill-rule="evenodd">
        <g id="sigma1-events" transform="translate(-1090.000000, -752.000000)" fill="#22493C" fill-rule="nonzero">
            <path d="M1092,752 L1118,752 C1119.10457,752 1120,752.895431 1120,754 L1120,780 C1120,781.104569 1119.10457,782 1118,782 L1092,782 C1090.89543,782 1090,781.104569 1090,780 L1090,754 C1090,752.895431 1090.89543,752 1092,752 Z M1102.02001,775 C1108.06173,775 1111.36526,768.842932 1111.36526,763.506806 C1111.36526,763.33089 1111.36526,763.154974 1111.35845,762.987435 C1111.99872,762.417801 1112.55726,761.705759 1113,760.893194 C1112.41422,761.211518 1111.78076,761.429319 1111.11324,761.529843 C1111.79438,761.027225 1112.31205,760.239791 1112.55726,759.293194 C1111.9238,759.753927 1111.22222,760.089005 1110.47297,760.273298 C1109.87356,759.485864 1109.02214,759 1108.07535,759 C1106.26352,759 1104.79225,760.809424 1104.79225,763.037696 C1104.79225,763.356021 1104.8195,763.665969 1104.8808,763.959162 C1102.14943,763.791623 1099.73138,762.183246 1098.11026,759.737173 C1097.83099,760.331937 1097.66752,761.027225 1097.66752,761.764398 C1097.66752,763.163351 1098.24649,764.403141 1099.13197,765.12356 C1098.59387,765.106806 1098.08983,764.922513 1097.64708,764.620942 C1097.64708,764.637696 1097.64708,764.65445 1097.64708,764.671204 C1097.64708,766.631414 1098.77778,768.256545 1100.2831,768.633508 C1100.01064,768.725654 1099.71775,768.775916 1099.41805,768.775916 C1099.2069,768.775916 1099.00255,768.750785 1098.79821,768.700524 C1099.21371,770.308901 1100.42614,771.473298 1101.86335,771.506806 C1100.73946,772.587435 1099.32269,773.232461 1097.78331,773.232461 C1097.51767,773.232461 1097.25883,773.215707 1097,773.173822 C1098.43721,774.329843 1100.16731,775 1102.02001,775 Z" id="twitter"></path>
        </g>
    </g>
</svg>