<?xml version="1.0" encoding="UTF-8"?>
<svg width="48px" height="16px" viewBox="0 0 48 16" version="1.1" xmlns="http://www.w3.org/2000/svg" xmlns:xlink="http://www.w3.org/1999/xlink">
    <!-- Generator: Sketch 52.6 (67491) - http://www.bohemiancoding.com/sketch -->
    <title>Combined Shape</title>
    <desc>Created with Sketch.</desc>
    <g id="Bridge" stroke="none" stroke-width="1" fill="none" fill-rule="evenodd">
        <g id="sigma1-2" transform="translate(-1133.000000, -550.000000)" fill="#F97599" fill-rule="nonzero">
            <path d="M1149.32299,555.918638 L1149.32299,563.809009 L1146.97074,563.809009 L1146.97074,554.879617 L1149.32299,555.918638 Z M1137.51935,554.705586 L1136.36546,559.605727 L1135.93612,561.585694 L1135.38724,563.809009 L1133,563.809009 L1135.06068,555.765255 L1137.51935,554.705586 Z M1141.43587,563.809009 L1137.44135,553.124562 L1139.36572,552 L1144.02138,563.809009 L1141.43587,563.809009 Z M1143.45075,554.443803 L1143.45075,552.412217 L1152.82621,552.412217 L1152.82621,554.443803 L1143.45075,554.443803 Z M1156.73414,555.279297 L1156.73196,555.277822 C1156.69269,555.395492 1156.66963,555.518072 1156.66344,555.642107 C1156.66344,556.145763 1156.7633,556.354452 1158.00248,556.684815 L1159.8576,557.153813 C1162.29586,557.796104 1163,558.45683 1163,560.245806 C1163,561.040742 1162.83453,561.630677 1162.60492,562.073127 C1162.5969,562.090825 1162.59034,562.107048 1162.5816,562.124747 C1162.40536,562.466067 1162.15639,562.763527 1161.85267,562.995637 C1161.82132,563.025134 1161.78269,563.051681 1161.74843,563.07749 C1160.6514,563.863578 1159.10316,563.942481 1158.86698,563.949856 C1158.46899,563.985252 1158.0586,564 1157.73131,564 C1156.63282,564 1155.10426,563.825969 1154.48613,563.60032 L1154.48613,561.706631 C1155.17278,561.862963 1156.85587,562.053954 1157.92011,562.053954 C1158.46469,562.049653 1159.00624,561.971529 1159.53031,561.821668 C1160.3263,561.559147 1160.52821,561.145456 1160.59527,560.900633 C1160.62613,560.771715 1160.64468,560.640096 1160.65067,560.507589 C1160.65067,560.05629 1160.56465,559.812942 1158.98507,559.396301 L1156.83838,558.840288 C1154.98399,558.37129 1154.3141,557.693603 1154.3141,555.834573 C1154.3141,554.37596 1154.98253,553.524243 1155.48039,553.246236 C1155.80695,553.59356 1156.51109,554.774903 1156.73414,555.279297 Z M1159.51354,554.165796 L1159.51354,554.167271 C1158.27728,554.167271 1157.35009,554.323604 1156.73196,554.583912 C1156.83473,554.027899 1157.26407,552.794936 1157.57314,552.412217 C1158.21288,552.289189 1158.86236,552.225262 1159.51354,552.221225 C1160.54424,552.221225 1161.798,552.360597 1162.39864,552.499232 L1162.39864,554.409144 C1161.44285,554.267658 1160.47929,554.186386 1159.51354,554.165796 Z M1173,566 C1168.58172,566 1165,562.418278 1165,558 C1165,553.581722 1168.58172,550 1173,550 C1177.41828,550 1181,553.581722 1181,558 C1181,562.418278 1177.41828,566 1173,566 Z M1168.18213,559.941176 L1168.18213,560.911765 L1172.47528,560.911765 L1172.47528,559.755882 L1171.13096,559.755882 C1170.74357,559.755882 1170.35907,559.767647 1169.97745,559.791176 L1169.97745,559.782353 C1170.79272,559.30588 1171.40127,558.838238 1171.80312,558.379412 C1172.20497,557.920586 1172.4059,557.41765 1172.4059,556.870588 C1172.4059,556.547057 1172.32784,556.244119 1172.17173,555.961765 C1172.01561,555.67941 1171.77566,555.44853 1171.45186,555.269118 C1171.12807,555.089705 1170.72622,555 1170.24631,555 C1169.58716,555 1169.05088,555.173528 1168.63747,555.520588 C1168.22405,555.867649 1168.01156,556.355879 1168,556.985294 L1169.27493,557.382353 C1169.28072,556.994116 1169.36022,556.69853 1169.51344,556.495588 C1169.66667,556.292646 1169.87915,556.191176 1170.15091,556.191176 C1170.39954,556.191176 1170.59034,556.263235 1170.72333,556.407353 C1170.85632,556.551471 1170.92281,556.741175 1170.92281,556.976471 C1170.92281,557.39412 1170.70743,557.839704 1170.27667,558.313235 C1169.84591,558.786767 1169.14774,559.329409 1168.18213,559.941176 Z M1175.62359,561 C1177.20787,561 1178,560.00001 1178,558 C1178,555.99999 1177.20787,555 1175.62359,555 C1174.03931,555 1173.24718,555.99999 1173.24718,558 C1173.24718,560.00001 1174.03931,561 1175.62359,561 Z M1175.62359,559.817647 C1175.30558,559.817647 1175.07575,559.676472 1174.93408,559.394118 C1174.79242,559.111763 1174.7216,558.647062 1174.7216,558 C1174.7216,557.352938 1174.79242,556.888237 1174.93408,556.605882 C1175.07575,556.323528 1175.30558,556.182353 1175.62359,556.182353 C1175.9416,556.182353 1176.17144,556.323528 1176.3131,556.605882 C1176.45476,556.888237 1176.52559,557.352938 1176.52559,558 C1176.52559,558.647062 1176.45476,559.111763 1176.3131,559.394118 C1176.17144,559.676472 1175.9416,559.817647 1175.62359,559.817647 Z" id="Combined-Shape"></path>
        </g>
    </g>
</svg>