<?xml version="1.0" encoding="UTF-8"?>
<svg width="40px" height="16px" viewBox="0 0 40 16" version="1.1" xmlns="http://www.w3.org/2000/svg" xmlns:xlink="http://www.w3.org/1999/xlink">
    <!-- Generator: Sketch 52.6 (67491) - http://www.bohemiancoding.com/sketch -->
    <title>Shape Copy 2</title>
    <desc>Created with Sketch.</desc>
    <g id="Bridge" stroke="none" stroke-width="1" fill="none" fill-rule="evenodd">
        <g id="sigma1-2" transform="translate(-263.000000, -194.000000)" fill="#F97599" fill-rule="nonzero">
            <path d="M284.763987,199.224851 L281.627656,197.839489 L281.627656,209.745345 L284.763987,209.745345 L284.763987,199.224851 Z M269.025797,197.607448 L265.747569,199.02034 L263,209.745345 L266.182982,209.745345 L266.914824,206.780925 L267.487275,204.14097 L269.025797,197.607448 Z M274.247831,209.745345 L277.69517,209.745345 L271.487627,194 L268.921804,195.499416 L274.247831,209.745345 Z M276.934338,197.258403 L289.434952,197.258403 L289.434952,194.549622 L276.934338,194.549622 L276.934338,197.258403 Z M294.645524,198.372396 C294.348121,197.699871 293.409263,196.124747 292.973851,195.661648 C292.310041,196.032323 291.418806,197.167947 291.418806,199.112763 C291.418806,201.591471 292.311985,202.495053 294.784506,203.120383 L297.646759,203.861734 C299.752873,204.417256 299.867557,204.741719 299.867557,205.343452 C299.859579,205.520128 299.834844,205.69562 299.793693,205.867511 C299.704278,206.193941 299.435061,206.745529 298.373743,207.095557 C297.674991,207.295372 296.952918,207.399538 296.226809,207.405273 C294.807831,207.405273 292.563708,207.150618 291.648175,206.942174 L291.648175,209.467093 C292.472349,209.767959 294.510429,210 295.975087,210 C296.411471,210 296.958652,209.980336 297.489311,209.933141 C297.804208,209.923309 299.868529,209.818104 301.331243,208.769987 C301.376922,208.735574 301.428433,208.700178 301.470225,208.660849 C301.875191,208.35137 302.207153,207.954756 302.442128,207.499662 C302.453791,207.476065 302.462538,207.454434 302.473229,207.430836 C302.779378,206.840902 303,206.054323 303,204.994408 C303,202.609107 302.061142,201.728139 298.810127,200.871751 L296.336634,200.24642 C294.6844,199.805936 294.551249,199.527684 294.551249,198.856142 C294.559513,198.690762 294.590255,198.527322 294.642608,198.37043 L294.645524,198.372396 Z M298.351389,196.887728 C299.639058,196.915181 300.923796,197.023544 302.19818,197.212192 L302.19818,194.665642 C301.397332,194.480796 299.725659,194.294967 298.351389,194.294967 C297.48314,194.30035 296.617174,194.385585 295.764184,194.549622 C295.352097,195.059915 294.779646,196.703865 294.642608,197.445216 C295.466781,197.098138 296.703042,196.889695 298.351389,196.889695 L298.351389,196.887728 Z" id="Shape-Copy-2"></path>
        </g>
    </g>
</svg>